<svg width="16" height="16" viewBox="0 0 16 16" fill="none" xmlns="http://www.w3.org/2000/svg">
<g clip-path="url(#clip0_1_603)">
<path fill-rule="evenodd" clip-rule="evenodd" d="M8 0C3.5875 0 0 3.5875 0 8C0 12.4125 3.5875 16 8 16C12.4125 16 16 12.4125 16 8C16 3.5875 12.4125 0 8 0Z" fill="#4BAE4F"/>
<path d="M6.45937 11.6598C5.4375 10.6379 4.42188 9.60664 3.39687 8.58477C3.28437 8.47227 3.28437 8.28477 3.39687 8.17227L4.575 6.99414C4.6875 6.88164 4.875 6.88164 4.9875 6.99414L6.67188 8.67852L11.0031 4.34414C11.1188 4.23164 11.3031 4.23164 11.4187 4.34414L12.6 5.52539C12.7156 5.64102 12.7156 5.82539 12.6 5.93789L6.87187 11.6598C6.75937 11.7754 6.575 11.7754 6.45937 11.6598Z" fill="white"/>
</g>
<defs>
<clipPath id="clip0_1_603">
<rect width="16" height="16" fill="white"/>
</clipPath>
</defs>
</svg>
