<svg width="36" height="36" viewBox="0 0 36 36" fill="none" xmlns="http://www.w3.org/2000/svg">
<path d="M2.09997 18.0004C2.09998 21.1451 3.03249 24.2192 4.77961 26.8339C6.52672 29.4487 9.00996 31.4866 11.9153 32.6901C14.8207 33.8935 18.0176 34.2084 21.1019 33.5949C24.1862 32.9814 27.0193 31.467 29.243 29.2434C31.4666 27.0197 32.981 24.1866 33.5945 21.1023C34.208 18.018 33.8931 14.8211 32.6897 11.9157C31.4862 9.01037 29.4483 6.52713 26.8335 4.78001C24.2188 3.0329 21.1447 2.10038 18 2.10038C13.7843 2.10435 9.74233 3.7808 6.76136 6.76177C3.78039 9.74274 2.10395 13.7847 2.09997 18.0004ZM32.1 18.0004C32.1 20.7891 31.273 23.5152 29.7237 25.8339C28.1744 28.1527 25.9723 29.9599 23.3958 31.0271C20.8194 32.0943 17.9843 32.3735 15.2492 31.8295C12.5141 31.2854 10.0017 29.9425 8.02977 27.9706C6.05785 25.9987 4.71495 23.4863 4.1709 20.7512C3.62685 18.016 3.90608 15.181 4.97327 12.6045C6.04047 10.0281 7.8477 7.82599 10.1664 6.27666C12.4852 4.72733 15.2113 3.90038 18 3.90038C21.7383 3.90435 25.3224 5.39116 27.9658 8.03456C30.6092 10.678 32.096 14.262 32.1 18.0004ZM20.1 11.9254C20.1847 11.8426 20.2848 11.7774 20.3948 11.7334C20.5047 11.6894 20.6222 11.6674 20.7406 11.6688C20.859 11.6702 20.9759 11.6949 21.0848 11.7415C21.1936 11.7881 21.2922 11.8557 21.375 11.9404C21.4577 12.0251 21.5229 12.1253 21.567 12.2352C21.611 12.3451 21.6329 12.4626 21.6315 12.581C21.6301 12.6994 21.6054 12.8163 21.5589 12.9252C21.5123 13.034 21.4447 13.1326 21.36 13.2154L16.5 18.0004L21.39 22.8004C21.5036 22.8751 21.5988 22.9745 21.6684 23.0912C21.7381 23.208 21.7804 23.339 21.7922 23.4744C21.804 23.6099 21.7849 23.7462 21.7365 23.8732C21.688 24.0002 21.6114 24.1146 21.5124 24.2078C21.4134 24.301 21.2946 24.3705 21.1649 24.4112C21.0352 24.4519 20.8979 24.4626 20.7634 24.4427C20.629 24.4227 20.5008 24.3725 20.3884 24.2959C20.2761 24.2193 20.1826 24.1183 20.115 24.0004L14.61 18.4954C14.4748 18.3615 14.3855 18.1882 14.355 18.0004C14.3558 17.8827 14.3801 17.7664 14.4265 17.6582C14.4729 17.55 14.5403 17.4522 14.625 17.3704L20.1 11.9254Z"/>
</svg>
