<svg width="24" height="24" viewBox="0 0 24 24" fill="none" xmlns="http://www.w3.org/2000/svg">
<g clip-path="url(#clip0_1_419)">
<path d="M9.14062 0H2.10938C0.946219 0 0 0.946219 0 2.10938V9.14062C0 10.3038 0.946219 11.25 2.10938 11.25H9.14062C10.3038 11.25 11.25 10.3038 11.25 9.14062V2.10938C11.25 0.946219 10.3038 0 9.14062 0ZM21.8906 0H14.8594C13.6962 0 12.75 0.946219 12.75 2.10938V9.14062C12.75 10.3038 13.6962 11.25 14.8594 11.25H21.8906C23.0538 11.25 24 10.3038 24 9.14062V2.10938C24 0.946219 23.0538 0 21.8906 0ZM21.8906 12.75H14.8594C13.6962 12.75 12.75 13.6962 12.75 14.8594V21.8906C12.75 23.0538 13.6962 24 14.8594 24H21.8906C23.0538 24 24 23.0538 24 21.8906V14.8594C24 13.6962 23.0538 12.75 21.8906 12.75ZM9.14062 12.75H2.10938C0.946219 12.75 0 13.6962 0 14.8594V21.8906C0 23.0538 0.946219 24 2.10938 24H9.14062C10.3038 24 11.25 23.0538 11.25 21.8906V14.8594C11.25 13.6962 10.3038 12.75 9.14062 12.75Z" fill="url(#paint0_linear_1_419)"/>
<path d="M7.73438 4.92188H6.32812V3.51562C6.32812 3.12698 6.01364 2.8125 5.625 2.8125C5.23636 2.8125 4.92188 3.12698 4.92188 3.51562V4.92188H3.51562C3.12698 4.92188 2.8125 5.23636 2.8125 5.625C2.8125 6.01364 3.12698 6.32812 3.51562 6.32812H4.92188V7.73438C4.92188 8.12302 5.23636 8.4375 5.625 8.4375C6.01364 8.4375 6.32812 8.12302 6.32812 7.73438V6.32812H7.73438C8.12302 6.32812 8.4375 6.01364 8.4375 5.625C8.4375 5.23636 8.12302 4.92188 7.73438 4.92188ZM16.2656 6.32812H20.4844C20.873 6.32812 21.1875 6.01364 21.1875 5.625C21.1875 5.23636 20.873 4.92188 20.4844 4.92188H16.2656C15.877 4.92188 15.5625 5.23636 15.5625 5.625C15.5625 6.01364 15.877 6.32812 16.2656 6.32812ZM20.4844 16.2656H16.2656C15.877 16.2656 15.5625 16.5801 15.5625 16.9688C15.5625 17.3574 15.877 17.6719 16.2656 17.6719H20.4844C20.873 17.6719 21.1875 17.3574 21.1875 16.9688C21.1875 16.5801 20.873 16.2656 20.4844 16.2656ZM20.4844 19.0781H16.2656C15.877 19.0781 15.5625 19.3926 15.5625 19.7812C15.5625 20.1699 15.877 20.4844 16.2656 20.4844H20.4844C20.873 20.4844 21.1875 20.1699 21.1875 19.7812C21.1875 19.3926 20.873 19.0781 20.4844 19.0781ZM7.61353 16.3865C7.33889 16.1118 6.89391 16.1118 6.61927 16.3865L5.625 17.3807L4.63073 16.3865C4.35609 16.1118 3.91111 16.1118 3.63647 16.3865C3.36183 16.6611 3.36183 17.1061 3.63647 17.3807L4.63073 18.375L3.63647 19.3693C3.36183 19.6439 3.36183 20.0889 3.63647 20.3635C3.91111 20.6382 4.35605 20.6382 4.63073 20.3635L5.625 19.3693L6.61927 20.3635C6.89391 20.6382 7.33884 20.6382 7.61353 20.3635C7.88817 20.0889 7.88817 19.6439 7.61353 19.3693L6.61927 18.375L7.61353 17.3807C7.88817 17.1061 7.88817 16.6612 7.61353 16.3865Z" fill="url(#paint1_linear_1_419)"/>
</g>
<defs>
<linearGradient id="paint0_linear_1_419" x1="12" y1="24" x2="12" y2="0" gradientUnits="userSpaceOnUse">
<stop stop-color="#5558FF"/>
<stop offset="1" stop-color="#00C0FF"/>
</linearGradient>
<linearGradient id="paint1_linear_1_419" x1="12" y1="20.5695" x2="12" y2="2.8125" gradientUnits="userSpaceOnUse">
<stop stop-color="#ADDCFF"/>
<stop offset="0.5028" stop-color="#EAF6FF"/>
<stop offset="1" stop-color="#EAF6FF"/>
</linearGradient>
<clipPath id="clip0_1_419">
<rect width="24" height="24" fill="white"/>
</clipPath>
</defs>
</svg>
