<svg width="18" height="18" viewBox="0 0 18 18" fill="none" xmlns="http://www.w3.org/2000/svg">
<path fill-rule="evenodd" clip-rule="evenodd" d="M2.70515 1.29119C2.31463 0.90066 1.68147 0.900659 1.29094 1.29118C0.900416 1.68171 0.900415 2.31487 1.29094 2.7054L7.58622 9.00069L1.29099 15.2959C0.90047 15.6865 0.900471 16.3196 1.291 16.7101C1.68152 17.1007 2.31469 17.1007 2.70521 16.7101L9.00043 10.4149L15.2956 16.7101C15.6862 17.1007 16.3193 17.1007 16.7099 16.7101C17.1004 16.3196 17.1004 15.6865 16.7099 15.2959L10.4146 9.00069L16.7099 2.7054C17.1004 2.31487 17.1004 1.68171 16.7099 1.29118C16.3194 0.900659 15.6862 0.90066 15.2957 1.29119L9.00043 7.58648L2.70515 1.29119Z"/>
</svg>
