<svg width="16" height="16" viewBox="0 0 16 16" fill="none" xmlns="http://www.w3.org/2000/svg">
<g clip-path="url(#clip0_1_53)">
<path d="M15.8603 3.17969L11.0078 8.00091L15.8603 12.8221C15.948 12.6388 16.0012 12.4361 16.0012 12.2197V3.78216C16.0012 3.56569 15.948 3.36303 15.8603 3.17969Z" fill="#788799"/>
<path d="M14.5947 2.375H1.40716C1.19069 2.375 0.988031 2.42822 0.804688 2.51594L7.00666 8.68666C7.55503 9.23503 8.44678 9.23503 8.99516 8.68666L15.1971 2.51594C15.0138 2.42822 14.8111 2.375 14.5947 2.375Z" fill="#788799"/>
<path d="M0.140938 3.17969C0.0532188 3.36303 0 3.56569 0 3.78216V12.2197C0 12.4361 0.0532188 12.6388 0.140938 12.8221L4.99341 8.00091L0.140938 3.17969Z" fill="#788799"/>
<path d="M10.3447 8.66406L9.658 9.35072C8.74428 10.2644 7.2575 10.2644 6.34378 9.35072L5.65716 8.66406L0.804688 13.4853C0.988031 13.573 1.19069 13.6262 1.40716 13.6262H14.5947C14.8111 13.6262 15.0138 13.573 15.1971 13.4853L10.3447 8.66406Z" fill="#788799"/>
</g>
<defs>
<clipPath id="clip0_1_53">
<rect width="16" height="16" fill="white"/>
</clipPath>
</defs>
</svg>
