<svg width="16" height="16" viewBox="0 0 16 16" fill="none" xmlns="http://www.w3.org/2000/svg">
<g clip-path="url(#clip0_1_618)">
<path d="M8 16C12.4183 16 16 12.4183 16 8C16 3.58172 12.4183 0 8 0C3.58172 0 0 3.58172 0 8C0 12.4183 3.58172 16 8 16Z" fill="#E63946"/>
<path d="M8.84796 8.00066L10.824 6.02466C10.9299 5.91092 10.9876 5.76048 10.9849 5.60504C10.9822 5.4496 10.9192 5.30129 10.8093 5.19136C10.6993 5.08143 10.551 5.01846 10.3956 5.01572C10.2401 5.01298 10.0897 5.07068 9.97596 5.17666L7.99996 7.15266L6.02396 5.17666C5.91022 5.07068 5.75978 5.01298 5.60434 5.01572C5.4489 5.01846 5.30059 5.08143 5.19066 5.19136C5.08073 5.30129 5.01776 5.4496 5.01502 5.60504C5.01228 5.76048 5.06998 5.91092 5.17596 6.02466L7.15196 8.00066L5.17596 9.97666C5.0636 10.0892 5.00049 10.2417 5.00049 10.4007C5.00049 10.5597 5.0636 10.7122 5.17596 10.8247C5.28846 10.937 5.44096 11.0001 5.59996 11.0001C5.75896 11.0001 5.91146 10.937 6.02396 10.8247L7.99996 8.84866L9.97596 10.8247C10.0885 10.937 10.241 11.0001 10.4 11.0001C10.559 11.0001 10.7115 10.937 10.824 10.8247C10.9363 10.7122 10.9994 10.5597 10.9994 10.4007C10.9994 10.2417 10.9363 10.0892 10.824 9.97666L8.84796 8.00066Z" fill="#EDEBEA"/>
</g>
<defs>
<clipPath id="clip0_1_618">
<rect width="16" height="16" fill="white"/>
</clipPath>
</defs>
</svg>
