<svg width="12" height="16" viewBox="0 0 12 16" fill="none" xmlns="http://www.w3.org/2000/svg">
<path fill-rule="evenodd" clip-rule="evenodd" d="M4.54078 9.10864C4.52291 8.82423 4.13765 8.76317 4.0359 9.02857C3.40772 10.6668 3.06371 12.3304 3.82445 13.9803L4.22142 14.8412C4.273 14.9531 4.14887 15.0658 4.04586 15.0006L3.25309 14.4989C2.14638 13.7985 1.32873 12.7917 1.10567 11.463C0.732116 9.23801 2.10593 7.05554 3.65613 5.62604C4.78803 4.58226 5.21782 3.30273 4.92751 1.78751L4.7685 0.957668C4.74604 0.840481 4.88402 0.760918 4.97094 0.840981L5.58634 1.40773C7.18362 2.8787 7.35614 4.33711 6.69035 6.38698C6.68722 6.39664 6.68468 6.40623 6.68266 6.4162C6.55139 7.06086 6.54952 7.88664 7.09691 8.34376C7.51481 8.69276 8.10624 8.68414 8.58446 8.47642C9.06534 8.26754 9.43957 7.87857 9.66043 7.39779L9.94034 6.78839C9.98644 6.68801 10.1285 6.69404 10.1663 6.79795L10.3957 7.42889C11.5289 10.5456 11.0318 13.1233 8.09846 14.8522L7.55297 15.1737C7.46044 15.2282 7.34869 15.1446 7.37202 15.0382L7.50957 14.4113C8.02475 12.0629 6.01126 11.7223 5.11355 10.6719C4.72817 10.221 4.57777 9.69739 4.54078 9.10864Z" fill="url(#paint0_linear_1_577)"/>
<defs>
<linearGradient id="paint0_linear_1_577" x1="1.57481" y1="13.0032" x2="9.42267" y2="5.30629" gradientUnits="userSpaceOnUse">
<stop stop-color="#F8AE1F"/>
<stop offset="1" stop-color="#CA2157"/>
</linearGradient>
</defs>
</svg>
