<svg width="166" height="45" viewBox="0 0 166 45" fill="none" xmlns="http://www.w3.org/2000/svg">
<path d="M50.1843 29.2031L49.3092 31.8559L48.4105 29.2031H48.0085L47.1098 31.8559L46.2347 29.2031H45.7617L46.826 32.4588H47.3226L48.1977 29.8543L49.0727 32.4588H49.5457L50.61 29.2031H50.1843Z" fill="white"/>
<path d="M53.379 32.0527V30.9916H54.9872V30.6299H53.379V29.617H55.1764V29.207H52.9297V32.4627H55.2474V32.0527H53.379Z" fill="white"/>
<path d="M59.1266 29.207H58.6536L57.2109 32.4627H57.6839L58.0387 31.6427H59.7178L60.0726 32.4627H60.5456L59.1266 29.207ZM58.2042 31.281L58.8901 29.6893L59.5759 31.281H58.2042Z" fill="white"/>
<path d="M63.2423 32.0527V29.207H62.793V32.4627H64.9688V32.0527H63.2423Z" fill="white"/>
<path d="M66.457 29.207V29.617H67.5449V32.4627H67.9943V29.617H69.0822V29.207H66.457Z" fill="white"/>
<path d="M73.622 29.207V30.6057H71.8009V29.207H71.3516V32.4627H71.8009V31.0157H73.622V32.4627H74.0713V29.207H73.622Z" fill="white"/>
<path d="M81.9497 29.5199C81.7132 29.3269 81.3821 29.2305 80.98 29.2305H79.7266V32.4861H80.1759V31.4974H80.9564C81.3584 31.4974 81.6895 31.4009 81.926 31.1838C82.1862 30.9909 82.2808 30.7015 82.2808 30.3639C82.3044 30.0022 82.1862 29.7128 81.9497 29.5199ZM81.6186 30.8945C81.4767 31.0392 81.2638 31.0874 80.9564 31.0874H80.1759V29.6404H80.9564C81.2402 29.6404 81.4767 29.7128 81.6186 29.8334C81.7841 29.9539 81.8551 30.1469 81.8551 30.388C81.8551 30.581 81.7841 30.7739 81.6186 30.8945Z" fill="white"/>
<path d="M85.1642 32.0527V30.9916H86.7724V30.6299H85.1642V29.617H86.9616V29.207H84.7148V32.4627H87.0325V32.0527H85.1642Z" fill="white"/>
<path d="M92.4035 29.9996C92.2616 29.7344 92.0487 29.5414 91.8122 29.3967C91.5521 29.252 91.2683 29.1797 90.9372 29.1797C90.6297 29.1797 90.3223 29.252 90.0621 29.3967C89.802 29.5414 89.5891 29.7344 89.4472 29.9996C89.3053 30.2649 89.2344 30.5302 89.2344 30.8437C89.2344 31.1572 89.3053 31.4225 89.4472 31.6877C89.5891 31.953 89.802 32.1459 90.0621 32.2906C90.3223 32.4353 90.6061 32.5077 90.9372 32.5077C91.2683 32.5077 91.5521 32.4353 91.8122 32.2906C92.0724 32.1459 92.2616 31.953 92.4035 31.6877C92.5454 31.4466 92.6163 31.1572 92.6163 30.8437C92.64 30.5302 92.5454 30.2408 92.4035 29.9996ZM92.0014 31.4707C91.9068 31.6636 91.7413 31.8083 91.5757 31.9289C91.3865 32.0253 91.1737 32.0977 90.9372 32.0977C90.7007 32.0977 90.4878 32.0495 90.2986 31.9289C90.1094 31.8324 89.9675 31.6636 89.8493 31.4707C89.731 31.2778 89.6837 31.0607 89.6837 30.8437C89.6837 30.6025 89.731 30.3855 89.8493 30.1925C89.9439 29.9996 90.1094 29.8549 90.2986 29.7344C90.4878 29.6379 90.7007 29.5655 90.9372 29.5655C91.1737 29.5655 91.3865 29.6138 91.5757 29.7344C91.7649 29.8308 91.9068 29.9996 92.0014 30.1925C92.1197 30.3855 92.167 30.6025 92.167 30.8437C92.167 31.0607 92.1197 31.2778 92.0014 31.4707Z" fill="white"/>
<path d="M97.2741 29.5199C97.0376 29.3269 96.7065 29.2305 96.2808 29.2305H95.0273V32.4861H95.4767V31.4974H96.2572C96.6829 31.4974 97.014 31.4009 97.2505 31.1838C97.487 30.9909 97.6052 30.7015 97.6052 30.3639C97.6289 30.0022 97.5106 29.7128 97.2741 29.5199ZM96.943 30.8945C96.7775 31.0392 96.5883 31.0874 96.2808 31.0874H95.5003V29.6404H96.2808C96.5883 29.6404 96.8011 29.7128 96.943 29.8334C97.1086 29.9539 97.1559 30.1469 97.1559 30.388C97.1795 30.581 97.1086 30.7739 96.943 30.8945Z" fill="white"/>
<path d="M100.488 32.0527V29.207H100.039V32.4627H102.215V32.0527H100.488Z" fill="white"/>
<path d="M104.938 32.0527V30.9916H106.546V30.6299H104.938V29.617H106.735V29.207H104.465V32.4627H106.783V32.0527H104.938Z" fill="white"/>
<path d="M113.664 32.0749C113.427 32.0749 113.215 32.0267 113.025 31.9061C112.836 31.8097 112.694 31.6408 112.576 31.4479C112.481 31.255 112.411 31.038 112.411 30.8209C112.411 30.5798 112.481 30.3627 112.576 30.1698C112.671 29.9769 112.836 29.8322 113.025 29.7116C113.215 29.6151 113.427 29.5428 113.664 29.5428C114.019 29.5428 114.326 29.6634 114.563 29.9286L114.87 29.6392C114.705 29.4704 114.539 29.3499 114.326 29.2534C114.113 29.181 113.9 29.1328 113.64 29.1328C113.309 29.1328 113.025 29.2052 112.765 29.3499C112.505 29.4945 112.292 29.6875 112.15 29.9527C112.008 30.218 111.938 30.4833 111.938 30.7968C111.938 31.1103 112.008 31.3997 112.15 31.6408C112.292 31.9061 112.505 32.099 112.765 32.2437C113.025 32.3884 113.309 32.4608 113.64 32.4608C113.9 32.4608 114.113 32.4126 114.326 32.3402C114.539 32.2437 114.705 32.1232 114.87 31.9544L114.563 31.665C114.326 31.9544 114.019 32.0749 113.664 32.0749Z" fill="white"/>
<path d="M120.095 29.9996C119.953 29.7344 119.764 29.5414 119.503 29.3967C119.243 29.252 118.959 29.1797 118.628 29.1797C118.297 29.1797 118.013 29.252 117.753 29.3967C117.493 29.5414 117.304 29.7344 117.162 29.9996C116.997 30.2649 116.949 30.5302 116.949 30.8437C116.949 31.1572 117.02 31.4225 117.162 31.6877C117.304 31.953 117.493 32.1459 117.753 32.2906C118.013 32.4353 118.297 32.5077 118.628 32.5077C118.936 32.5077 119.22 32.4353 119.503 32.2906C119.764 32.1459 119.953 31.953 120.095 31.6877C120.237 31.4466 120.308 31.1572 120.308 30.8437C120.331 30.5302 120.237 30.2408 120.095 29.9996ZM119.716 31.4707C119.622 31.6636 119.456 31.8083 119.267 31.9289C119.078 32.0253 118.865 32.0977 118.628 32.0977C118.392 32.0977 118.179 32.0495 117.99 31.9289C117.801 31.8324 117.659 31.6636 117.54 31.4707C117.446 31.2778 117.375 31.0607 117.375 30.8437C117.375 30.6025 117.422 30.3855 117.54 30.1925C117.635 29.9996 117.801 29.8549 117.99 29.7344C118.179 29.6379 118.392 29.5655 118.628 29.5655C118.865 29.5655 119.078 29.6138 119.267 29.7344C119.456 29.8308 119.598 29.9996 119.716 30.1925C119.811 30.3855 119.882 30.6025 119.882 30.8437C119.858 31.0607 119.811 31.2778 119.716 31.4707Z" fill="white"/>
<path d="M124.638 31.3775C124.851 31.3051 125.04 31.1604 125.158 30.9916C125.277 30.7987 125.348 30.5816 125.348 30.3405C125.348 29.9787 125.229 29.6893 124.993 29.4964C124.733 29.3035 124.425 29.207 124 29.207H122.746V32.4627H123.195V31.4498H124.189L124.875 32.4627H125.371L124.638 31.3775ZM124 31.0881H123.219V29.617H124C124.283 29.617 124.52 29.6893 124.662 29.8099C124.827 29.9305 124.898 30.1234 124.898 30.3646C124.898 30.5816 124.827 30.7746 124.662 30.8951C124.496 31.0157 124.283 31.0881 124 31.0881Z" fill="white"/>
<path d="M130.028 29.5199C129.791 29.3269 129.46 29.2305 129.058 29.2305H127.805V32.4861H128.254V31.4974H129.058C129.46 31.4974 129.791 31.4009 130.028 31.1838C130.264 30.9909 130.383 30.7015 130.383 30.3639C130.383 30.0022 130.264 29.7128 130.028 29.5199ZM129.697 30.8945C129.555 31.0392 129.342 31.0874 129.034 31.0874H128.254V29.6404H129.034C129.318 29.6404 129.555 29.7128 129.697 29.8334C129.862 29.9539 129.933 30.1469 129.933 30.388C129.933 30.581 129.862 30.7739 129.697 30.8945Z" fill="white"/>
<path d="M135.751 29.9996C135.609 29.7344 135.42 29.5414 135.16 29.3967C134.9 29.252 134.616 29.1797 134.285 29.1797C133.954 29.1797 133.67 29.252 133.41 29.3967C133.149 29.5414 132.96 29.7344 132.818 29.9996C132.653 30.2649 132.605 30.5302 132.605 30.8437C132.605 31.1572 132.676 31.4225 132.818 31.6877C132.96 31.953 133.149 32.1459 133.41 32.2906C133.67 32.4353 133.954 32.5077 134.285 32.5077C134.592 32.5077 134.876 32.4353 135.16 32.2906C135.42 32.1459 135.609 31.953 135.751 31.6877C135.893 31.4466 135.964 31.1572 135.964 30.8437C135.964 30.5302 135.893 30.2408 135.751 29.9996ZM135.349 31.4707C135.254 31.6636 135.089 31.8083 134.9 31.9289C134.71 32.0253 134.497 32.0977 134.261 32.0977C134.024 32.0977 133.812 32.0495 133.622 31.9289C133.433 31.8324 133.291 31.6636 133.173 31.4707C133.078 31.2778 133.008 31.0607 133.008 30.8437C133.008 30.6025 133.055 30.3855 133.173 30.1925C133.268 29.9996 133.433 29.8549 133.622 29.7344C133.812 29.6379 134.024 29.5655 134.261 29.5655C134.497 29.5655 134.71 29.6138 134.9 29.7344C135.089 29.8308 135.231 29.9996 135.349 30.1925C135.443 30.3855 135.514 30.6025 135.514 30.8437C135.514 31.0607 135.443 31.2778 135.349 31.4707Z" fill="white"/>
<path d="M140.271 31.3775C140.484 31.3051 140.673 31.1604 140.791 30.9916C140.909 30.7987 140.98 30.5816 140.98 30.3405C140.98 29.9787 140.862 29.6893 140.626 29.4964C140.366 29.3035 140.058 29.207 139.632 29.207H138.379V32.4627H138.828V31.4498H139.822L140.507 32.4627H141.004L140.271 31.3775ZM139.632 31.0881H138.852V29.617H139.632C139.916 29.617 140.153 29.6893 140.295 29.8099C140.46 29.9305 140.531 30.1234 140.531 30.3646C140.531 30.5816 140.46 30.7746 140.295 30.8951C140.153 31.0157 139.916 31.0881 139.632 31.0881Z" fill="white"/>
<path d="M144.857 29.207H144.407L142.965 32.4627H143.438L143.769 31.6427H145.472L145.826 32.4627H146.3L144.857 29.207ZM143.958 31.281L144.644 29.6893L145.33 31.281H143.958Z" fill="white"/>
<path d="M147.91 29.207V29.617H148.998V32.4627H149.447V29.617H150.535V29.207H147.91Z" fill="white"/>
<path d="M152.781 29.207V32.4627H153.231V29.207H152.781Z" fill="white"/>
<path d="M158.833 29.9996C158.691 29.7344 158.478 29.5414 158.242 29.3967C157.982 29.252 157.698 29.1797 157.367 29.1797C157.059 29.1797 156.776 29.252 156.492 29.3967C156.232 29.5414 156.042 29.7344 155.877 29.9996C155.735 30.2649 155.664 30.5302 155.664 30.8437C155.664 31.1572 155.735 31.4225 155.877 31.6877C156.042 31.953 156.232 32.1459 156.492 32.2906C156.752 32.4353 157.036 32.5077 157.367 32.5077C157.698 32.5077 157.982 32.4353 158.242 32.2906C158.502 32.1459 158.691 31.953 158.833 31.6877C158.975 31.4466 159.046 31.1572 159.046 30.8437C159.046 30.5302 158.975 30.2408 158.833 29.9996ZM158.431 31.4707C158.313 31.6636 158.171 31.8083 157.982 31.9289C157.793 32.0253 157.58 32.0977 157.343 32.0977C157.13 32.0977 156.894 32.0495 156.705 31.9289C156.515 31.8324 156.374 31.6636 156.255 31.4707C156.137 31.2778 156.09 31.0607 156.09 30.8437C156.09 30.6025 156.137 30.3855 156.255 30.1925C156.35 29.9996 156.515 29.8549 156.705 29.7344C156.894 29.6379 157.107 29.5655 157.343 29.5655C157.58 29.5655 157.793 29.6138 157.982 29.7344C158.171 29.8308 158.313 29.9996 158.431 30.1925C158.526 30.3855 158.597 30.6025 158.597 30.8437C158.597 31.0607 158.549 31.2778 158.431 31.4707Z" fill="white"/>
<path d="M163.755 29.207V31.6186L161.839 29.207H161.484V32.4627H161.934V30.027L163.849 32.4627H164.204V29.207H163.755Z" fill="white"/>
<path d="M19.0856 0L0 11.2621V33.7621L19.0856 45.0241L38.1949 33.7621V11.2621L19.0856 0ZM34.8839 31.7846L19.1093 41.0691L3.33466 31.7846V13.2154L19.1093 3.93087L34.8839 13.2154V31.7846Z" fill="#0057FF"/>
<path d="M32.1167 16.1558V30.143L19.1091 37.8118L6.10156 30.143V16.1799L9.41258 14.2266V28.1896L19.1091 33.905L28.782 28.1896V14.2507L32.1167 16.1558Z" fill="#0057FF"/>
<path d="M22.5133 18.0159V14.495L19.1077 12.4693L15.6784 14.495V24.503L19.1077 26.5529L22.5133 24.5271V21.0062H25.8716V26.4805L19.1077 30.4596L12.3438 26.4805V12.5416L19.1077 8.5625L25.8716 12.5416V18.0159H22.5133Z" fill="#0057FF"/>
<path d="M56.4286 15.6267C55.8373 14.6139 55.0096 13.818 53.9453 13.2393C52.9047 12.6605 51.7222 12.3711 50.4215 12.3711C49.1207 12.3711 47.9382 12.6605 46.8976 13.2393C45.857 13.818 45.0056 14.6139 44.4143 15.6267C43.8231 16.6396 43.5156 17.773 43.5156 19.0512C43.5156 20.3052 43.8231 21.4386 44.4143 22.4515C45.0056 23.4643 45.8333 24.2602 46.8976 24.8389C47.9382 25.4177 49.1207 25.7071 50.4215 25.7071C51.7222 25.7071 52.9047 25.4177 53.9453 24.8389C54.9859 24.2602 55.8137 23.4885 56.4286 22.4515C57.0198 21.4386 57.3273 20.3052 57.3273 19.0512C57.3273 17.773 57.0198 16.6396 56.4286 15.6267ZM53.8507 21.1733C53.5196 21.7762 53.023 22.2827 52.4317 22.6203C51.8168 22.9579 51.1546 23.1508 50.3978 23.1508C49.641 23.1508 48.9788 22.982 48.3875 22.6203C47.7963 22.2827 47.3233 21.7762 46.9685 21.1733C46.6374 20.5463 46.4482 19.8229 46.4482 19.027C46.4482 18.2312 46.6138 17.5077 46.9685 16.8807C47.2996 16.2537 47.7726 15.7714 48.3875 15.4338C48.9788 15.0962 49.6647 14.9032 50.3978 14.9032C51.1546 14.9032 51.8168 15.0962 52.4317 15.4338C53.023 15.7714 53.496 16.2537 53.8507 16.8807C54.1818 17.5077 54.371 18.2071 54.371 19.027C54.371 19.8229 54.2055 20.5463 53.8507 21.1733Z" fill="white"/>
<path d="M77.927 12.5863V15.022H73.8828V25.4641H70.9502V15.022L65.0377 14.9979C64.0681 14.9979 63.9025 14.9738 63.3349 14.9738C62.5308 14.9738 61.9159 15.022 61.5375 15.2873C61.1354 15.5767 60.9462 15.8902 60.9462 16.3243C60.9462 16.7825 61.1591 16.9754 61.6084 17.1924C62.0578 17.4095 62.7437 17.6265 63.666 17.8435C64.612 18.0606 65.4161 18.3017 66.031 18.5429C66.6459 18.7599 67.1899 19.1458 67.6156 19.6281C68.0413 20.1345 68.2778 20.8098 68.2778 21.678C68.2778 22.4014 68.0886 23.0767 67.6865 23.7037C67.2845 24.3066 66.6696 24.7889 65.8891 25.1506C65.085 25.5124 64.1154 25.6812 62.9329 25.6812C61.9396 25.6812 60.9935 25.5365 60.0475 25.2712C59.1252 25.0059 58.3684 24.6442 57.8008 24.186L58.7941 21.9673C59.338 22.3773 59.9766 22.6908 60.7097 22.932C61.4665 23.1731 62.1997 23.2937 62.9565 23.2937C63.7843 23.2937 64.3992 23.1731 64.7776 22.932C65.1796 22.6667 65.3688 22.3532 65.3688 21.9191C65.3688 21.6056 65.2506 21.3644 65.0141 21.1474C64.7776 20.9545 64.4701 20.7857 64.1154 20.6651C63.7606 20.5445 63.2403 20.3998 62.6254 20.2551C61.6794 20.014 60.8753 19.7969 60.2604 19.5558C59.6455 19.3146 59.1252 18.9529 58.6758 18.4464C58.2501 17.9159 58.0136 17.2407 58.0136 16.3725C58.0136 15.6249 58.2028 14.9497 58.6049 14.3468C59.0069 13.7439 59.5982 13.2616 60.4023 12.8998C61.2064 12.5622 62.1761 12.5863 63.3113 12.5863H77.927Z" fill="white"/>
<path d="M107.491 14.7844C107.065 14.085 106.426 13.5545 105.599 13.1686C104.771 12.7828 103.801 12.5898 102.69 12.5898H97.2266V25.4677H100.136V21.9226H102.666C103.778 21.9226 104.747 21.7297 105.575 21.368C106.403 21.0062 107.041 20.4516 107.467 19.7522C107.916 19.0529 108.129 18.2088 108.129 17.2924C108.153 16.3037 107.94 15.4837 107.491 14.7844ZM104.511 18.9082C104.061 19.294 103.376 19.4869 102.501 19.4869H100.136V15.0255H102.501C103.376 15.0255 104.038 15.2185 104.511 15.6043C104.96 15.9902 105.197 16.5448 105.197 17.2683C105.197 17.9677 104.96 18.5223 104.511 18.9082Z" fill="#0057FF"/>
<path d="M120.45 23.1502C119.669 23.1502 118.984 22.9813 118.369 22.6196C117.754 22.282 117.281 21.7756 116.926 21.1727C116.595 20.5457 116.406 19.8222 116.406 19.0264C116.406 18.2305 116.571 17.5071 116.926 16.8801C117.281 16.2531 117.754 15.7707 118.369 15.4331C118.984 15.0955 119.669 14.9026 120.45 14.9026C121.727 14.9026 122.791 15.409 123.619 16.4219L125.487 14.6614C124.896 13.9379 124.139 13.3592 123.264 12.9733C122.389 12.5875 121.396 12.3945 120.284 12.3945C118.984 12.3945 117.825 12.6839 116.784 13.2386C115.743 13.8174 114.916 14.5891 114.324 15.626C113.733 16.6389 113.426 17.7723 113.426 19.0505C113.426 20.3286 113.733 21.4621 114.324 22.4749C114.916 23.4878 115.743 24.2836 116.784 24.8624C117.825 25.4412 118.984 25.7064 120.261 25.7064C121.349 25.7064 122.342 25.5135 123.241 25.1277C124.139 24.7418 124.872 24.163 125.487 23.4154L123.619 21.655C122.791 22.6437 121.727 23.1502 120.45 23.1502Z" fill="white"/>
<path d="M135.374 12.5898V17.6542H129.651V12.5898H126.742V25.4677H129.651V20.1863H135.374V25.4677H138.283V12.5898H135.374Z" fill="white"/>
<path d="M148.948 12.5898V19.6799C148.948 20.8615 148.711 21.7538 148.238 22.2844C147.765 22.839 147.056 23.1284 146.133 23.1284C144.265 23.1525 143.319 21.995 143.319 19.6799V12.5898H140.41V19.7763C140.41 21.6815 140.93 23.1284 141.924 24.1413C142.941 25.1542 144.336 25.6606 146.133 25.6606C147.931 25.6606 149.35 25.1542 150.343 24.1413C151.36 23.1284 151.857 21.6815 151.857 19.7763V12.5898H148.948Z" fill="white"/>
<path d="M160.465 18.3294L165.691 12.614H162.451L156.87 18.6188V12.5898H153.961V25.4677H156.846V22.212L158.549 20.4033L162.57 25.4677H165.975L160.465 18.3294Z" fill="white"/>
<path d="M95.0949 12.5898V19.7763C95.0949 21.6815 94.5982 23.1284 93.5813 24.1413C92.588 25.1542 91.1926 25.6606 89.3715 25.6606C87.5741 25.6606 86.1551 25.1542 85.1618 24.1413C84.1685 23.1284 83.6719 21.6815 83.6719 19.7763V12.5898H89.0641L86.5808 15.122L84.476 17.2683H86.5808V19.704C86.5808 22.0191 87.5032 23.1525 89.3715 23.1525C90.2939 23.1525 90.9798 22.8632 91.4764 22.3085C91.9494 21.7538 92.1859 20.8857 92.1859 19.704V17.2683H94.2435L92.1859 15.2185L89.5844 12.614H95.0949V12.5898Z" fill="#0057FF"/>
</svg>
