<svg width="183" height="49" viewBox="0 0 183 49" fill="none" xmlns="http://www.w3.org/2000/svg">
<g clip-path="url(#clip0_1_479)">
<path d="M55.3247 31.7969L54.36 34.6854L53.3693 31.7969H52.9261L51.9353 34.6854L50.9707 31.7969H50.4492L51.6225 35.3419H52.17L53.1346 32.5059L54.0993 35.3419H54.6208L55.794 31.7969H55.3247Z" fill="white"/>
<path d="M58.8469 34.8955V33.7401H60.6198V33.3462H58.8469V32.2433H60.8284V31.7969H58.3516V35.3419H60.9066V34.8955H58.8469Z" fill="#000812"/>
<path d="M65.1822 31.7969H64.6607L63.0703 35.3419H63.5918L63.9828 34.4491H65.834L66.225 35.3419H66.7465L65.1822 31.7969ZM64.1653 34.0552L64.9214 32.3221L65.6775 34.0552H64.1653Z" fill="#000812"/>
<path d="M69.7219 34.8955V31.7969H69.2266V35.3419H71.6252V34.8955H69.7219Z" fill="#000812"/>
<path d="M73.2656 31.7969V32.2433H74.4649V35.3419H74.9603V32.2433H76.1596V31.7969H73.2656Z" fill="#000812"/>
<path d="M81.1631 31.7969V33.3199H79.1555V31.7969H78.6602V35.3419H79.1555V33.7663H81.1631V35.3419H81.6584V31.7969H81.1631Z" fill="#000812"/>
<path d="M90.3453 32.1432C90.0846 31.9332 89.7196 31.8281 89.2763 31.8281H87.8945V35.3731H88.3899V34.2965H89.2503C89.6935 34.2965 90.0585 34.1915 90.3192 33.9551C90.606 33.7451 90.7103 33.4299 90.7103 33.0623C90.7364 32.6684 90.606 32.3533 90.3453 32.1432ZM89.9803 33.64C89.8239 33.7976 89.5892 33.8501 89.2503 33.8501H88.3899V32.2745H89.2503C89.5631 32.2745 89.8239 32.3533 89.9803 32.4846C90.1628 32.6159 90.241 32.826 90.241 33.0886C90.241 33.2987 90.1628 33.5087 89.9803 33.64Z" fill="#000812"/>
<path d="M93.886 34.8955V33.7401H95.6589V33.3462H93.886V32.2433H95.8675V31.7969H93.3906V35.3419H95.9457V34.8955H93.886Z" fill="#000812"/>
<path d="M101.869 32.6663C101.712 32.3774 101.478 32.1673 101.217 32.0098C100.93 31.8522 100.617 31.7734 100.252 31.7734C99.9133 31.7734 99.5743 31.8522 99.2875 32.0098C99.0007 32.1673 98.7661 32.3774 98.6097 32.6663C98.4532 32.9551 98.375 33.244 98.375 33.5853C98.375 33.9267 98.4532 34.2156 98.6097 34.5044C98.7661 34.7933 99.0007 35.0033 99.2875 35.1609C99.5743 35.3185 99.8872 35.3972 100.252 35.3972C100.617 35.3972 100.93 35.3185 101.217 35.1609C101.504 35.0033 101.712 34.7933 101.869 34.5044C102.025 34.2418 102.103 33.9267 102.103 33.5853C102.129 33.244 102.025 32.9289 101.869 32.6663ZM101.425 34.2681C101.321 34.4782 101.139 34.6357 100.956 34.767C100.748 34.872 100.513 34.9508 100.252 34.9508C99.9915 34.9508 99.7568 34.8983 99.5482 34.767C99.3397 34.662 99.1832 34.4782 99.0529 34.2681C98.9225 34.058 98.8704 33.8217 98.8704 33.5853C98.8704 33.3227 98.9225 33.0864 99.0529 32.8763C99.1572 32.6663 99.3397 32.5087 99.5482 32.3774C99.7568 32.2724 99.9915 32.1936 100.252 32.1936C100.513 32.1936 100.748 32.2461 100.956 32.3774C101.165 32.4824 101.321 32.6663 101.425 32.8763C101.556 33.0864 101.608 33.3227 101.608 33.5853C101.608 33.8217 101.556 34.058 101.425 34.2681Z" fill="#000812"/>
<path d="M107.239 32.1432C106.978 31.9332 106.613 31.8281 106.144 31.8281H104.762V35.3731H105.257V34.2965H106.117C106.587 34.2965 106.952 34.1915 107.213 33.9551C107.473 33.7451 107.604 33.4299 107.604 33.0623C107.63 32.6684 107.499 32.3533 107.239 32.1432ZM106.874 33.64C106.691 33.7976 106.482 33.8501 106.144 33.8501H105.283V32.2745H106.144C106.482 32.2745 106.717 32.3533 106.874 32.4846C107.056 32.6159 107.108 32.826 107.108 33.0886C107.134 33.2987 107.056 33.5087 106.874 33.64Z" fill="#000812"/>
<path d="M110.781 34.8955V31.7969H110.285V35.3419H112.684V34.8955H110.781Z" fill="#000812"/>
<path d="M115.686 34.8955V33.7401H117.458V33.3462H115.686V32.2433H117.667V31.7969H115.164V35.3419H117.719V34.8955H115.686Z" fill="#000812"/>
<path d="M125.306 34.9224C125.045 34.9224 124.81 34.8699 124.602 34.7386C124.393 34.6335 124.237 34.4497 124.106 34.2396C124.002 34.0296 123.924 33.7932 123.924 33.5569C123.924 33.2943 124.002 33.058 124.106 32.8479C124.211 32.6378 124.393 32.4803 124.602 32.349C124.81 32.2439 125.045 32.1652 125.306 32.1652C125.697 32.1652 126.036 32.2965 126.296 32.5853L126.635 32.2702C126.453 32.0864 126.27 31.9551 126.036 31.85C125.801 31.7713 125.566 31.7188 125.28 31.7188C124.915 31.7188 124.602 31.7975 124.315 31.9551C124.028 32.1126 123.793 32.3227 123.637 32.6116C123.481 32.9004 123.402 33.1893 123.402 33.5306C123.402 33.872 123.481 34.1871 123.637 34.4497C123.793 34.7386 124.028 34.9487 124.315 35.1062C124.602 35.2638 124.915 35.3425 125.28 35.3425C125.566 35.3425 125.801 35.29 126.036 35.2112C126.27 35.1062 126.453 34.9749 126.635 34.7911L126.296 34.476C126.036 34.7911 125.697 34.9224 125.306 34.9224Z" fill="#000812"/>
<path d="M132.393 32.6663C132.237 32.3774 132.028 32.1673 131.742 32.0098C131.455 31.8522 131.142 31.7734 130.777 31.7734C130.412 31.7734 130.099 31.8522 129.812 32.0098C129.525 32.1673 129.317 32.3774 129.16 32.6663C128.978 32.9551 128.926 33.244 128.926 33.5853C128.926 33.9267 129.004 34.2156 129.16 34.5044C129.317 34.7933 129.525 35.0033 129.812 35.1609C130.099 35.3185 130.412 35.3972 130.777 35.3972C131.116 35.3972 131.429 35.3185 131.742 35.1609C132.028 35.0033 132.237 34.7933 132.393 34.5044C132.55 34.2418 132.628 33.9267 132.628 33.5853C132.654 33.244 132.55 32.9289 132.393 32.6663ZM131.976 34.2681C131.872 34.4782 131.689 34.6357 131.481 34.767C131.272 34.872 131.038 34.9508 130.777 34.9508C130.516 34.9508 130.282 34.8983 130.073 34.767C129.864 34.662 129.708 34.4782 129.578 34.2681C129.473 34.058 129.395 33.8217 129.395 33.5853C129.395 33.3227 129.447 33.0864 129.578 32.8763C129.682 32.6663 129.864 32.5087 130.073 32.3774C130.282 32.2724 130.516 32.1936 130.777 32.1936C131.038 32.1936 131.272 32.2461 131.481 32.3774C131.689 32.4824 131.846 32.6663 131.976 32.8763C132.081 33.0864 132.159 33.3227 132.159 33.5853C132.133 33.8217 132.081 34.058 131.976 34.2681Z" fill="#000812"/>
<path d="M137.402 34.1602C137.637 34.0814 137.845 33.9239 137.976 33.7401C138.106 33.53 138.184 33.2937 138.184 33.0311C138.184 32.6372 138.054 32.3221 137.793 32.112C137.506 31.9019 137.168 31.7969 136.698 31.7969H135.316V35.3419H135.812V34.239H136.907L137.663 35.3419H138.21L137.402 34.1602ZM136.698 33.8451H135.838V32.2433H136.698C137.011 32.2433 137.272 32.3221 137.428 32.4534C137.611 32.5847 137.689 32.7947 137.689 33.0573C137.689 33.2937 137.611 33.5037 137.428 33.635C137.246 33.7663 137.011 33.8451 136.698 33.8451Z" fill="#000812"/>
<path d="M143.345 32.1432C143.085 31.9332 142.72 31.8281 142.276 31.8281H140.895V35.3731H141.39V34.2965H142.276C142.72 34.2965 143.085 34.1915 143.345 33.9551C143.606 33.7451 143.736 33.4299 143.736 33.0623C143.736 32.6684 143.606 32.3533 143.345 32.1432ZM142.98 33.64C142.824 33.7976 142.589 33.8501 142.25 33.8501H141.39V32.2745H142.25C142.563 32.2745 142.824 32.3533 142.98 32.4846C143.163 32.6159 143.241 32.826 143.241 33.0886C143.241 33.2987 143.163 33.5087 142.98 33.64Z" fill="#000812"/>
<path d="M149.655 32.6663C149.499 32.3774 149.29 32.1673 149.003 32.0098C148.716 31.8522 148.404 31.7734 148.039 31.7734C147.674 31.7734 147.361 31.8522 147.074 32.0098C146.787 32.1673 146.579 32.3774 146.422 32.6663C146.24 32.9551 146.188 33.244 146.188 33.5853C146.188 33.9267 146.266 34.2156 146.422 34.5044C146.579 34.7933 146.787 35.0033 147.074 35.1609C147.361 35.3185 147.674 35.3972 148.039 35.3972C148.378 35.3972 148.69 35.3185 149.003 35.1609C149.29 35.0033 149.499 34.7933 149.655 34.5044C149.812 34.2418 149.89 33.9267 149.89 33.5853C149.89 33.244 149.812 32.9289 149.655 32.6663ZM149.212 34.2681C149.108 34.4782 148.925 34.6357 148.716 34.767C148.508 34.872 148.273 34.9508 148.013 34.9508C147.752 34.9508 147.517 34.8983 147.309 34.767C147.1 34.662 146.944 34.4782 146.813 34.2681C146.709 34.058 146.631 33.8217 146.631 33.5853C146.631 33.3227 146.683 33.0864 146.813 32.8763C146.918 32.6663 147.1 32.5087 147.309 32.3774C147.517 32.2724 147.752 32.1936 148.013 32.1936C148.273 32.1936 148.508 32.2461 148.716 32.3774C148.925 32.4824 149.081 32.6663 149.212 32.8763C149.316 33.0864 149.394 33.3227 149.394 33.5853C149.394 33.8217 149.316 34.058 149.212 34.2681Z" fill="#000812"/>
<path d="M154.637 34.1602C154.871 34.0814 155.08 33.9239 155.21 33.7401C155.34 33.53 155.419 33.2937 155.419 33.0311C155.419 32.6372 155.288 32.3221 155.028 32.112C154.741 31.9019 154.402 31.7969 153.933 31.7969H152.551V35.3419H153.046V34.239H154.141L154.897 35.3419H155.445L154.637 34.1602ZM153.933 33.8451H153.072V32.2433H153.933C154.245 32.2433 154.506 32.3221 154.663 32.4534C154.845 32.5847 154.923 32.7947 154.923 33.0573C154.923 33.2937 154.845 33.5037 154.663 33.635C154.506 33.7663 154.245 33.8451 153.933 33.8451Z" fill="#000812"/>
<path d="M159.691 31.7969H159.196L157.605 35.3419H158.127L158.492 34.4491H160.369L160.76 35.3419H161.282L159.691 31.7969ZM158.7 34.0552L159.457 32.3221L160.213 34.0552H158.7Z" fill="#000812"/>
<path d="M163.059 31.7969V32.2433H164.258V35.3419H164.753V32.2433H165.953V31.7969H163.059Z" fill="#000812"/>
<path d="M168.43 31.7969V35.3419H168.925V31.7969H168.43Z" fill="#000812"/>
<path d="M175.099 32.6663C174.943 32.3774 174.708 32.1673 174.447 32.0098C174.161 31.8522 173.848 31.7734 173.483 31.7734C173.144 31.7734 172.831 31.8522 172.518 32.0098C172.231 32.1673 172.023 32.3774 171.84 32.6663C171.684 32.9551 171.605 33.244 171.605 33.5853C171.605 33.9267 171.684 34.2156 171.84 34.5044C172.023 34.7933 172.231 35.0033 172.518 35.1609C172.805 35.3185 173.118 35.3972 173.483 35.3972C173.848 35.3972 174.161 35.3185 174.447 35.1609C174.734 35.0033 174.943 34.7933 175.099 34.5044C175.256 34.2418 175.334 33.9267 175.334 33.5853C175.334 33.244 175.256 32.9289 175.099 32.6663ZM174.656 34.2681C174.526 34.4782 174.369 34.6357 174.161 34.767C173.952 34.872 173.717 34.9508 173.457 34.9508C173.222 34.9508 172.961 34.8983 172.753 34.767C172.544 34.662 172.388 34.4782 172.257 34.2681C172.127 34.058 172.075 33.8217 172.075 33.5853C172.075 33.3227 172.127 33.0864 172.257 32.8763C172.362 32.6663 172.544 32.5087 172.753 32.3774C172.961 32.2724 173.196 32.1936 173.457 32.1936C173.717 32.1936 173.952 32.2461 174.161 32.3774C174.369 32.4824 174.526 32.6663 174.656 32.8763C174.76 33.0864 174.838 33.3227 174.838 33.5853C174.838 33.8217 174.786 34.058 174.656 34.2681Z" fill="#000812"/>
<path d="M180.526 31.7969V34.4228L178.415 31.7969H178.023V35.3419H178.519V32.6897L180.631 35.3419H181.022V31.7969H180.526Z" fill="#000812"/>
<path d="M21.0402 0L0 12.2631V36.7631L21.0402 49.0263L42.1064 36.7631V12.2631L21.0402 0ZM38.4563 34.6099L21.0662 44.7197L3.67616 34.6099V14.3901L21.0662 4.28028L38.4563 14.3901V34.6099Z" fill="#0057FF"/>
<path d="M35.4059 17.5929V32.8234L21.0662 41.1739L6.72656 32.8234V17.6192L10.3767 15.4922V30.6964L21.0662 36.9198L31.7297 30.6964V15.5184L35.4059 17.5929Z" fill="#0057FF"/>
<path d="M24.8204 19.614V15.7801L21.066 13.5743L17.2855 15.7801V26.6778L21.066 28.9098L24.8204 26.704V22.8702H28.5226V28.831L21.066 33.1638L13.6094 28.831V13.6531L21.066 9.32031L28.5226 13.6531V19.614H24.8204Z" fill="#0057FF"/>
<path d="M62.208 17.0216C61.5562 15.9187 60.6437 15.0521 59.4704 14.4219C58.3233 13.7917 57.0197 13.4766 55.5857 13.4766C54.1517 13.4766 52.8481 13.7917 51.701 14.4219C50.5538 15.0521 49.6152 15.9187 48.9634 17.0216C48.3116 18.1245 47.9727 19.3587 47.9727 20.7504C47.9727 22.1159 48.3116 23.3501 48.9634 24.453C49.6152 25.5559 50.5277 26.4224 51.701 27.0527C52.8481 27.6829 54.1517 27.998 55.5857 27.998C57.0197 27.998 58.3233 27.6829 59.4704 27.0527C60.6176 26.4224 61.5301 25.5821 62.208 24.453C62.8598 23.3501 63.1988 22.1159 63.1988 20.7504C63.1988 19.3587 62.8598 18.1245 62.208 17.0216ZM59.3662 23.0612C59.0012 23.7177 58.4536 24.2692 57.8018 24.6368C57.124 25.0044 56.3939 25.2145 55.5596 25.2145C54.7253 25.2145 53.9953 25.0307 53.3435 24.6368C52.6917 24.2692 52.1703 23.7177 51.7792 23.0612C51.4142 22.3785 51.2056 21.5907 51.2056 20.7242C51.2056 19.8576 51.3881 19.0698 51.7792 18.3871C52.1442 17.7043 52.6656 17.1791 53.3435 16.8115C53.9953 16.4439 54.7514 16.2338 55.5596 16.2338C56.3939 16.2338 57.124 16.4439 57.8018 16.8115C58.4536 17.1791 58.9751 17.7043 59.3662 18.3871C59.7312 19.0698 59.9397 19.8313 59.9397 20.7242C59.9397 21.5907 59.7572 22.3785 59.3662 23.0612Z" fill="#000812"/>
<path d="M85.91 13.7113V16.3635H81.4517V27.7339H78.2187V16.3635L71.7007 16.3373C70.6318 16.3373 70.4493 16.311 69.8235 16.311C68.9371 16.311 68.2592 16.3635 67.8421 16.6524C67.3988 16.9675 67.1902 17.3089 67.1902 17.7816C67.1902 18.2805 67.4249 18.4906 67.9203 18.7269C68.4156 18.9632 69.1717 19.1996 70.1885 19.4359C71.2314 19.6722 72.1179 19.9348 72.7957 20.1974C73.4736 20.4337 74.0733 20.8539 74.5426 21.3791C75.0119 21.9305 75.2726 22.6658 75.2726 23.6111C75.2726 24.3989 75.064 25.1342 74.6208 25.8169C74.1776 26.4734 73.4997 26.9986 72.6393 27.3925C71.7529 27.7864 70.6839 27.9702 69.3803 27.9702C68.2853 27.9702 67.2424 27.8126 66.1995 27.5238C65.1827 27.2349 64.3484 26.841 63.7227 26.3421L64.8177 23.9262C65.4173 24.3727 66.1213 24.714 66.9295 24.9766C67.7638 25.2392 68.5721 25.3705 69.4064 25.3705C70.3189 25.3705 70.9968 25.2392 71.4139 24.9766C71.8571 24.6878 72.0657 24.3464 72.0657 23.8737C72.0657 23.5324 71.9354 23.2698 71.6746 23.0334C71.4139 22.8234 71.075 22.6395 70.6839 22.5082C70.2928 22.3769 69.7192 22.2194 69.0414 22.0618C67.9985 21.7992 67.112 21.5629 66.4342 21.3003C65.7563 21.0377 65.1827 20.6438 64.6873 20.0924C64.218 19.5147 63.9573 18.7794 63.9573 17.8341C63.9573 17.02 64.1659 16.2848 64.6091 15.6283C65.0523 14.9718 65.7041 14.4466 66.5906 14.0527C67.477 13.6851 68.546 13.7113 69.7975 13.7113H85.91Z" fill="#000812"/>
<path d="M118.499 16.1005C118.03 15.339 117.326 14.7613 116.413 14.3412C115.501 13.921 114.432 13.7109 113.206 13.7109H107.184V27.7334H110.39V23.8733H113.18C114.406 23.8733 115.475 23.6632 116.387 23.2694C117.3 22.8755 118.004 22.2715 118.473 21.51C118.968 20.7485 119.203 19.8294 119.203 18.8315C119.229 17.7549 118.994 16.8621 118.499 16.1005ZM115.214 20.5909C114.718 21.011 113.962 21.2211 112.998 21.2211H110.39V16.3631H112.998C113.962 16.3631 114.692 16.5732 115.214 16.9934C115.709 17.4135 115.97 18.0175 115.97 18.8053C115.97 19.5668 115.709 20.1707 115.214 20.5909Z" fill="#0057FF"/>
<path d="M132.786 25.2117C131.926 25.2117 131.17 25.0279 130.492 24.634C129.814 24.2663 129.293 23.7149 128.902 23.0584C128.537 22.3757 128.328 21.5879 128.328 20.7213C128.328 19.8548 128.511 19.067 128.902 18.3842C129.293 17.7015 129.814 17.1763 130.492 16.8087C131.17 16.4411 131.926 16.231 132.786 16.231C134.194 16.231 135.368 16.7824 136.28 17.8853L138.34 15.9684C137.688 15.1806 136.854 14.5504 135.889 14.1302C134.924 13.7101 133.829 13.5 132.604 13.5C131.17 13.5 129.892 13.8151 128.745 14.4191C127.598 15.0493 126.686 15.8896 126.034 17.0188C125.382 18.1217 125.043 19.3558 125.043 20.7476C125.043 22.1393 125.382 23.3735 126.034 24.4764C126.686 25.5793 127.598 26.4459 128.745 27.0761C129.892 27.7063 131.17 27.9952 132.578 27.9952C133.777 27.9952 134.872 27.7851 135.863 27.365C136.854 26.9448 137.662 26.3146 138.34 25.5005L136.28 23.5836C135.368 24.6602 134.194 25.2117 132.786 25.2117Z" fill="#000812"/>
<path d="M149.239 13.7109V19.2254H142.93V13.7109H139.723V27.7334H142.93V21.9826H149.239V27.7334H152.446V13.7109H149.239Z" fill="#000812"/>
<path d="M164.201 13.7109V21.4312C164.201 22.7179 163.94 23.6895 163.419 24.2672C162.897 24.8712 162.115 25.1863 161.099 25.1863C159.039 25.2125 157.996 23.9521 157.996 21.4312V13.7109H154.789V21.5362C154.789 23.6107 155.363 25.1863 156.458 26.2892C157.579 27.3921 159.117 27.9435 161.099 27.9435C163.08 27.9435 164.644 27.3921 165.739 26.2892C166.86 25.1863 167.408 23.6107 167.408 21.5362V13.7109H164.201Z" fill="#000812"/>
<path d="M176.9 19.9607L182.662 13.7372H179.09L172.937 20.2758V13.7109H169.73V27.7334H172.911V24.1884L174.788 22.219L179.221 27.7334H182.975L176.9 19.9607Z" fill="#000812"/>
<path d="M104.835 13.7109V21.5362C104.835 23.6107 104.287 25.1863 103.166 26.2892C102.071 27.3921 100.533 27.9435 98.5256 27.9435C96.5441 27.9435 94.9798 27.3921 93.8847 26.2892C92.7897 25.1863 92.2422 23.6107 92.2422 21.5362V13.7109H98.1866L95.4491 16.4682L93.1286 18.8053H95.4491V21.4575C95.4491 23.9784 96.4659 25.2125 98.5256 25.2125C99.5424 25.2125 100.298 24.8974 100.846 24.2935C101.367 23.6895 101.628 22.7442 101.628 21.4575V18.8053H103.896L101.628 16.5732L98.7602 13.7372H104.835V13.7109Z" fill="#0057FF"/>
</g>
<defs>
<clipPath id="clip0_1_479">
<rect width="183" height="49" fill="white"/>
</clipPath>
</defs>
</svg>
