<svg width="27" height="28" viewBox="0 0 27 28" fill="none" xmlns="http://www.w3.org/2000/svg">
<path d="M13.9952 23.1742C13.6883 22.9992 13.3117 22.9992 13.0048 23.1742L6.4335 26.9202C5.6904 27.3438 4.79299 26.6995 4.95676 25.86L6.4347 18.2838C6.50043 17.9468 6.38871 17.5997 6.13876 17.3643L0.555323 12.1065C-0.0620807 11.5251 0.279031 10.4873 1.12098 10.3857L8.61731 9.48025C8.97609 9.43691 9.28358 9.20337 9.4216 8.86938L12.5758 1.23648C12.9164 0.412363 14.0836 0.412362 14.4242 1.23648L17.5784 8.86938C17.7164 9.20337 18.0239 9.43691 18.3827 9.48025L25.879 10.3857C26.721 10.4873 27.0621 11.5251 26.4447 12.1065L20.8612 17.3643C20.6113 17.5997 20.4996 17.9468 20.5653 18.2838L22.0432 25.86C22.207 26.6995 21.3096 27.3438 20.5665 26.9202L13.9952 23.1742Z" fill="#F7C84B"/>
</svg>
